<svg version="1.2" baseProfile="tiny-ps" xmlns="http://www.w3.org/2000/svg" viewBox="0 0 38 24" width="38" height="24">
	<title>logono-svg</title>
	<style>
		tspan { white-space:pre }
		.shp0 { fill: #42c4d8 } 
		.shp1 { fill: #ffffff } 
	</style>
	<path id="Forma_1" fill-rule="evenodd" class="shp0" d="M14.79 23.84C14.64 23.86 14.5 23.85 14.35 23.82C14.21 23.78 14.08 23.73 13.96 23.65C13.83 23.56 13.73 23.46 13.64 23.34C13.56 23.23 13.49 23.09 13.45 22.95L11.55 14.5L10.4 16.53C10.35 16.63 10.28 16.73 10.19 16.81C10.11 16.9 10.02 16.97 9.92 17.04C9.82 17.1 9.71 17.15 9.6 17.18C9.49 17.22 9.37 17.24 9.25 17.24L2.74 17.33C2.39 17.33 2.05 17.2 1.8 16.95C1.55 16.7 1.4 16.37 1.4 16.01C1.39 15.66 1.53 15.32 1.77 15.07C2.02 14.81 2.35 14.67 2.71 14.66L8.45 14.59L10.95 10.27C11.09 10.03 11.29 9.85 11.54 9.73C11.78 9.61 12.05 9.57 12.32 9.61C12.59 9.65 12.84 9.77 13.03 9.95C13.23 10.14 13.37 10.38 13.44 10.64L14.59 15.8L16.88 2.21C16.9 2.06 16.96 1.91 17.04 1.77C17.11 1.64 17.22 1.52 17.33 1.42C17.45 1.32 17.59 1.24 17.73 1.19C17.88 1.14 18.03 1.11 18.19 1.11L18.2 1.11C18.35 1.11 18.51 1.13 18.65 1.18C18.8 1.23 18.94 1.3 19.06 1.4C19.18 1.5 19.28 1.62 19.36 1.75C19.44 1.88 19.5 2.03 19.53 2.18L22.37 17.37L23.19 15.23C23.23 15.11 23.3 14.99 23.38 14.89C23.47 14.78 23.56 14.69 23.67 14.61C23.78 14.53 23.91 14.47 24.03 14.43C24.16 14.39 24.29 14.37 24.43 14.37L36.38 14.21C36.73 14.2 37.07 14.34 37.32 14.59C37.57 14.83 37.72 15.17 37.72 15.53C37.73 15.88 37.59 16.22 37.35 16.47C37.1 16.73 36.76 16.87 36.41 16.88L25.37 17.02L23.17 22.76C23.06 23.03 22.87 23.26 22.62 23.42C22.37 23.57 22.08 23.64 21.79 23.61C21.5 23.59 21.22 23.47 21.01 23.27C20.79 23.08 20.64 22.82 20.58 22.53L18.28 10.12L16.1 22.88C16.07 23.03 16.01 23.16 15.93 23.29C15.85 23.41 15.75 23.52 15.63 23.61C15.51 23.69 15.38 23.76 15.24 23.8C15.1 23.84 14.95 23.85 14.8 23.83L14.79 23.83L14.79 23.84Z" />
	<path id="N" fill-rule="evenodd" class="shp0" d="M55.83 5.56L52.11 5.61L52.21 13.21L47.19 5.68L43.47 5.72L43.65 19.16L47.37 19.11L47.27 11.6L52.28 19.04L56 18.99L55.83 5.56Z" />
	<path id="ordis" fill-rule="evenodd" class="shp1" d="M62.94 8C63.19 7.99 63.44 8 63.68 8.02C63.93 8.04 64.17 8.08 64.41 8.13C64.65 8.18 64.89 8.25 65.12 8.33C65.35 8.41 65.58 8.51 65.8 8.61C66 8.72 66.2 8.84 66.39 8.97C66.58 9.1 66.76 9.25 66.93 9.4C67.1 9.56 67.26 9.73 67.4 9.91C67.55 10.1 67.68 10.29 67.8 10.49C67.92 10.71 68.03 10.93 68.13 11.17C68.23 11.4 68.3 11.64 68.37 11.88C68.43 12.13 68.48 12.37 68.51 12.62C68.54 12.87 68.56 13.13 68.55 13.38C68.56 13.63 68.56 13.88 68.53 14.13C68.51 14.39 68.47 14.64 68.41 14.88C68.35 15.13 68.28 15.37 68.19 15.61C68.1 15.84 67.99 16.07 67.87 16.29C67.76 16.5 67.63 16.69 67.5 16.88C67.36 17.06 67.2 17.23 67.04 17.4C66.87 17.56 66.7 17.71 66.51 17.85C66.33 17.99 66.13 18.11 65.93 18.22C65.49 18.44 65.03 18.62 64.55 18.74C64.07 18.85 63.58 18.92 63.09 18.92C62.6 18.93 62.1 18.88 61.62 18.77C61.14 18.67 60.68 18.51 60.23 18.3C60.02 18.19 59.82 18.07 59.63 17.94C59.44 17.81 59.26 17.66 59.09 17.5C58.92 17.35 58.76 17.18 58.61 17C58.47 16.81 58.34 16.62 58.22 16.42C58.09 16.2 57.98 15.98 57.88 15.74C57.79 15.51 57.71 15.27 57.64 15.02C57.58 14.78 57.53 14.53 57.5 14.28C57.47 14.03 57.45 13.78 57.46 13.52C57.45 13.27 57.45 13.02 57.48 12.77C57.5 12.52 57.54 12.27 57.6 12.02C57.66 11.77 57.73 11.53 57.82 11.3C57.91 11.06 58.02 10.83 58.14 10.61C58.25 10.4 58.38 10.21 58.52 10.03C58.66 9.84 58.81 9.67 58.98 9.51C59.14 9.34 59.32 9.19 59.51 9.06C59.7 8.92 59.89 8.8 60.1 8.69C60.32 8.58 60.54 8.48 60.77 8.39C61.01 8.3 61.24 8.23 61.48 8.17C61.72 8.11 61.96 8.07 62.21 8.04C62.45 8.01 62.7 8 62.94 8ZM62.99 11.23C62.87 11.22 62.75 11.24 62.63 11.26C62.51 11.29 62.39 11.33 62.28 11.38C62.17 11.43 62.07 11.49 61.97 11.56C61.88 11.64 61.79 11.72 61.71 11.81C61.62 11.93 61.54 12.05 61.47 12.19C61.41 12.32 61.35 12.45 61.31 12.6C61.27 12.74 61.24 12.88 61.23 13.03C61.21 13.18 61.21 13.32 61.22 13.47C61.21 13.62 61.22 13.77 61.24 13.92C61.25 14.07 61.29 14.21 61.33 14.35C61.38 14.5 61.44 14.63 61.51 14.77C61.58 14.9 61.66 15.02 61.75 15.14C61.83 15.23 61.92 15.31 62.02 15.38C62.12 15.45 62.23 15.51 62.34 15.56C62.45 15.61 62.57 15.64 62.68 15.66C62.8 15.69 62.93 15.69 63.05 15.69C63.17 15.69 63.29 15.68 63.4 15.65C63.52 15.63 63.63 15.59 63.74 15.53C63.85 15.48 63.95 15.42 64.05 15.35C64.14 15.27 64.23 15.19 64.3 15.09C64.39 14.98 64.47 14.85 64.54 14.72C64.61 14.59 64.66 14.45 64.7 14.31C64.74 14.16 64.77 14.02 64.79 13.87C64.8 13.72 64.8 13.57 64.79 13.43C64.8 13.28 64.8 13.13 64.78 12.98C64.76 12.84 64.73 12.69 64.68 12.55C64.63 12.41 64.58 12.28 64.51 12.15C64.44 12.02 64.35 11.89 64.26 11.78C64.18 11.69 64.09 11.61 64 11.54C63.9 11.47 63.8 11.41 63.69 11.36C63.58 11.31 63.46 11.28 63.34 11.25C63.23 11.23 63.11 11.22 62.99 11.23L62.99 11.23ZM74.1 9.98C74.2 9.82 74.31 9.67 74.42 9.53C74.54 9.38 74.66 9.25 74.79 9.12C74.92 8.99 75.06 8.87 75.2 8.75C75.35 8.64 75.5 8.53 75.65 8.44C75.8 8.34 75.96 8.26 76.12 8.18C76.28 8.11 76.44 8.05 76.61 8C76.78 7.95 76.95 7.91 77.12 7.88C77.3 7.86 77.47 7.84 77.65 7.84L77.7 11.83L76.62 11.84C76.46 11.83 76.3 11.84 76.13 11.85C75.97 11.87 75.81 11.9 75.65 11.94C75.49 11.99 75.34 12.04 75.19 12.11C75.04 12.18 74.9 12.26 74.76 12.35C74.65 12.46 74.55 12.58 74.46 12.71C74.38 12.84 74.31 12.98 74.26 13.12C74.21 13.27 74.17 13.42 74.16 13.58C74.14 13.73 74.14 13.89 74.16 14.04L74.22 18.64L70.5 18.69L70.36 8.03L74.08 7.98L74.1 9.98ZM83.19 7.73C83.35 7.72 83.52 7.73 83.69 7.74C83.86 7.76 84.02 7.79 84.18 7.82C84.35 7.86 84.51 7.91 84.66 7.97C84.82 8.03 84.97 8.11 85.12 8.19C85.25 8.26 85.38 8.35 85.5 8.44C85.62 8.54 85.73 8.64 85.84 8.75C85.94 8.87 86.03 8.99 86.12 9.11C86.21 9.24 86.28 9.37 86.35 9.51L86.28 4.42L90 4.37L90.19 18.43L86.47 18.48L86.44 16.79C86.38 16.93 86.31 17.07 86.23 17.19C86.14 17.32 86.05 17.45 85.95 17.56C85.85 17.68 85.74 17.78 85.62 17.88C85.51 17.98 85.38 18.07 85.25 18.15C85.11 18.23 84.96 18.31 84.8 18.37C84.65 18.44 84.49 18.49 84.33 18.53C84.16 18.58 84 18.61 83.83 18.63C83.67 18.65 83.5 18.66 83.33 18.66C83.13 18.66 82.93 18.65 82.73 18.63C82.53 18.6 82.33 18.57 82.14 18.51C81.94 18.46 81.75 18.39 81.57 18.31C81.38 18.23 81.2 18.14 81.03 18.03C80.86 17.92 80.69 17.79 80.53 17.65C80.37 17.52 80.22 17.37 80.08 17.21C79.95 17.05 79.82 16.88 79.71 16.71C79.59 16.53 79.49 16.34 79.4 16.15C79.3 15.93 79.21 15.69 79.13 15.46C79.05 15.22 78.98 14.98 78.93 14.73C78.88 14.49 78.84 14.24 78.81 13.99C78.79 13.74 78.78 13.49 78.78 13.24C78.77 12.99 78.77 12.74 78.79 12.5C78.81 12.25 78.84 12 78.89 11.76C78.93 11.51 78.99 11.27 79.07 11.03C79.14 10.79 79.23 10.56 79.33 10.33C79.41 10.14 79.51 9.95 79.62 9.77C79.72 9.59 79.85 9.42 79.98 9.26C80.11 9.1 80.26 8.95 80.41 8.8C80.57 8.66 80.73 8.53 80.91 8.42C81.08 8.31 81.25 8.21 81.43 8.12C81.62 8.04 81.8 7.96 82 7.91C82.19 7.85 82.39 7.8 82.59 7.77C82.78 7.75 82.99 7.73 83.19 7.73L83.19 7.73ZM84.46 10.99C84.33 10.98 84.2 10.99 84.07 11.02C83.94 11.04 83.81 11.08 83.69 11.13C83.57 11.18 83.46 11.25 83.35 11.33C83.24 11.4 83.15 11.49 83.06 11.59C82.96 11.7 82.88 11.82 82.81 11.94C82.74 12.07 82.69 12.2 82.64 12.34C82.6 12.48 82.57 12.62 82.55 12.76C82.53 12.91 82.53 13.05 82.54 13.2C82.53 13.34 82.54 13.49 82.56 13.63C82.58 13.78 82.62 13.92 82.66 14.06C82.71 14.2 82.77 14.33 82.85 14.46C82.92 14.58 83 14.7 83.1 14.81C83.19 14.91 83.29 14.99 83.4 15.07C83.51 15.14 83.63 15.2 83.75 15.25C83.87 15.3 84 15.33 84.12 15.35C84.25 15.37 84.38 15.38 84.52 15.37C84.64 15.38 84.77 15.36 84.9 15.34C85.03 15.31 85.15 15.27 85.27 15.22C85.38 15.17 85.5 15.1 85.6 15.03C85.71 14.95 85.8 14.86 85.89 14.77C85.98 14.66 86.06 14.54 86.13 14.41C86.2 14.28 86.26 14.15 86.31 14.01C86.35 13.87 86.38 13.73 86.4 13.58C86.42 13.44 86.42 13.29 86.41 13.14C86.42 13 86.41 12.86 86.39 12.71C86.37 12.57 86.33 12.43 86.28 12.29C86.24 12.16 86.17 12.03 86.1 11.9C86.03 11.78 85.94 11.66 85.85 11.55C85.76 11.46 85.66 11.37 85.55 11.3C85.45 11.23 85.33 11.17 85.21 11.12C85.09 11.07 84.97 11.03 84.84 11.01C84.72 10.99 84.59 10.98 84.46 10.98L84.46 10.99ZM92.13 4.8C92.12 4.67 92.13 4.54 92.16 4.41C92.18 4.28 92.22 4.16 92.27 4.04C92.32 3.92 92.38 3.81 92.46 3.7C92.53 3.6 92.62 3.5 92.71 3.41C92.82 3.32 92.94 3.24 93.06 3.16C93.19 3.09 93.32 3.03 93.45 2.98C93.59 2.93 93.73 2.9 93.87 2.88C94.01 2.86 94.16 2.85 94.3 2.85C94.44 2.84 94.58 2.85 94.72 2.86C94.86 2.88 95 2.91 95.14 2.96C95.27 3 95.4 3.06 95.53 3.13C95.65 3.2 95.77 3.28 95.87 3.37C95.97 3.46 96.06 3.55 96.13 3.66C96.21 3.76 96.27 3.87 96.33 3.99C96.38 4.11 96.42 4.23 96.44 4.36C96.47 4.48 96.48 4.61 96.48 4.74C96.48 4.87 96.47 4.99 96.45 5.12C96.43 5.24 96.39 5.36 96.34 5.48C96.29 5.59 96.23 5.7 96.15 5.8C96.08 5.9 95.99 6 95.9 6.08C95.79 6.17 95.68 6.25 95.56 6.33C95.44 6.4 95.31 6.46 95.17 6.5C95.04 6.55 94.91 6.58 94.77 6.61C94.63 6.63 94.49 6.64 94.35 6.63C94.2 6.64 94.06 6.64 93.92 6.62C93.78 6.6 93.64 6.57 93.5 6.53C93.36 6.48 93.23 6.43 93.11 6.36C92.98 6.29 92.86 6.21 92.75 6.12C92.65 6.04 92.56 5.95 92.49 5.85C92.41 5.75 92.34 5.65 92.29 5.53C92.23 5.42 92.19 5.3 92.17 5.17C92.14 5.05 92.13 4.93 92.13 4.8L92.13 4.8ZM92.47 7.74L96.19 7.69L96.33 18.35L92.6 18.4L92.46 7.74L92.47 7.74ZM102.66 7.48C102.96 7.46 103.26 7.46 103.55 7.49C103.85 7.53 104.14 7.59 104.43 7.67C104.71 7.75 104.99 7.86 105.26 7.99C105.52 8.12 105.78 8.28 106.02 8.46C106.23 8.62 106.42 8.81 106.6 9.01C106.77 9.21 106.93 9.43 107.06 9.66C107.2 9.89 107.32 10.13 107.41 10.38C107.5 10.63 107.58 10.89 107.62 11.15L104.14 11.2C104.13 11.11 104.1 11.03 104.07 10.95C104.04 10.87 104 10.79 103.95 10.72C103.9 10.65 103.85 10.58 103.79 10.52C103.73 10.46 103.66 10.4 103.59 10.35C103.52 10.3 103.44 10.26 103.36 10.22C103.28 10.19 103.2 10.16 103.11 10.14C103.03 10.11 102.94 10.1 102.86 10.09C102.77 10.08 102.68 10.08 102.59 10.08C102.54 10.08 102.48 10.08 102.43 10.08C102.37 10.09 102.32 10.1 102.26 10.12C102.21 10.13 102.16 10.16 102.11 10.18C102.06 10.21 102.01 10.24 101.96 10.27C101.93 10.3 101.9 10.33 101.87 10.37C101.84 10.41 101.82 10.45 101.8 10.5C101.78 10.54 101.77 10.58 101.76 10.63C101.75 10.68 101.75 10.72 101.75 10.77C101.76 10.84 101.77 10.91 101.79 10.97C101.82 11.03 101.85 11.09 101.89 11.15C101.93 11.2 101.98 11.24 102.04 11.28C102.1 11.32 102.16 11.35 102.22 11.37C102.35 11.41 102.47 11.45 102.6 11.49C102.73 11.54 102.85 11.57 102.98 11.61C103.11 11.64 103.23 11.68 103.36 11.71C103.49 11.74 103.62 11.77 103.75 11.79C103.92 11.82 104.1 11.86 104.27 11.9C104.44 11.94 104.61 11.98 104.78 12.03C104.95 12.07 105.12 12.12 105.29 12.17C105.46 12.22 105.62 12.28 105.79 12.33C105.93 12.38 106.06 12.44 106.19 12.51C106.31 12.57 106.44 12.65 106.56 12.73C106.68 12.81 106.79 12.9 106.9 13C107.01 13.09 107.11 13.2 107.2 13.3C107.31 13.43 107.4 13.57 107.48 13.71C107.56 13.86 107.63 14.01 107.68 14.16C107.74 14.32 107.77 14.48 107.8 14.64C107.82 14.81 107.83 14.97 107.82 15.14C107.83 15.29 107.82 15.43 107.8 15.58C107.78 15.72 107.75 15.87 107.71 16.01C107.67 16.15 107.62 16.29 107.55 16.42C107.49 16.55 107.42 16.68 107.33 16.8C107.24 16.93 107.14 17.05 107.03 17.16C106.92 17.28 106.81 17.38 106.68 17.48C106.56 17.58 106.43 17.66 106.29 17.74C106.15 17.82 106.01 17.89 105.87 17.95C105.39 18.13 104.9 18.25 104.4 18.32C103.9 18.39 103.39 18.41 102.88 18.37C102.38 18.32 101.88 18.23 101.4 18.07C100.91 17.92 100.45 17.72 100.01 17.47C99.79 17.3 99.58 17.12 99.4 16.92C99.21 16.72 99.05 16.5 98.91 16.26C98.76 16.02 98.65 15.77 98.56 15.51C98.47 15.25 98.4 14.99 98.37 14.71L101.94 14.67C101.95 14.75 101.96 14.84 101.99 14.92C102.02 15 102.05 15.08 102.1 15.16C102.14 15.23 102.19 15.3 102.25 15.36C102.31 15.43 102.38 15.48 102.45 15.53C102.53 15.58 102.61 15.62 102.7 15.66C102.78 15.7 102.87 15.73 102.96 15.75C103.05 15.77 103.15 15.79 103.24 15.8C103.33 15.81 103.43 15.81 103.52 15.8C103.58 15.81 103.64 15.8 103.69 15.8C103.75 15.79 103.81 15.78 103.87 15.76C103.92 15.75 103.98 15.72 104.03 15.7C104.08 15.67 104.13 15.64 104.18 15.6C104.21 15.57 104.25 15.54 104.27 15.5C104.3 15.47 104.33 15.43 104.35 15.38C104.36 15.34 104.38 15.29 104.39 15.25C104.4 15.2 104.4 15.15 104.4 15.11C104.4 15.03 104.38 14.96 104.36 14.89C104.34 14.82 104.3 14.76 104.26 14.7C104.22 14.64 104.16 14.59 104.1 14.55C104.04 14.5 103.98 14.47 103.91 14.45C103.78 14.4 103.66 14.36 103.53 14.32C103.4 14.28 103.27 14.25 103.14 14.21C103.01 14.18 102.88 14.15 102.75 14.12C102.62 14.1 102.49 14.07 102.36 14.05C102.19 14.02 102.02 13.99 101.85 13.95C101.69 13.92 101.52 13.88 101.35 13.83C101.19 13.79 101.02 13.74 100.86 13.69C100.69 13.64 100.53 13.59 100.36 13.54C100.23 13.49 100.11 13.43 99.98 13.37C99.86 13.3 99.74 13.23 99.63 13.15C99.51 13.08 99.4 12.99 99.3 12.9C99.19 12.81 99.09 12.71 99 12.6C98.9 12.48 98.81 12.34 98.73 12.2C98.65 12.06 98.58 11.91 98.53 11.76C98.48 11.6 98.45 11.44 98.42 11.28C98.4 11.12 98.39 10.96 98.4 10.8C98.39 10.57 98.41 10.35 98.45 10.12C98.5 9.9 98.57 9.69 98.66 9.48C98.76 9.28 98.87 9.08 99.01 8.91C99.15 8.73 99.31 8.57 99.48 8.43C99.71 8.26 99.95 8.11 100.2 7.99C100.45 7.86 100.72 7.76 100.98 7.67C101.25 7.59 101.53 7.54 101.81 7.5C102.09 7.47 102.37 7.46 102.65 7.47L102.66 7.48Z" />
</svg>